<?xml version="1.0" standalone="no"?>
<svg xmlns:xlink="http://www.w3.org/1999/xlink" id="wave" style="transform:rotate(0deg); transition: 0.3s" viewBox="0 0 1440 310" version="1.1" xmlns="http://www.w3.org/2000/svg"><defs><linearGradient id="sw-gradient-0" x1="0" x2="0" y1="1" y2="0"><stop stop-color="rgba(0, 0, 0, 1)" offset="0%"/><stop stop-color="rgba(109.641, 109.641, 109.641, 1)" offset="100%"/></linearGradient></defs><path style="transform:translate(0, 0px); opacity:1" fill="url(#sw-gradient-0)" d="M0,124L20,134.3C40,145,80,165,120,175.7C160,186,200,186,240,170.5C280,155,320,124,360,118.8C400,114,440,134,480,165.3C520,196,560,238,600,242.8C640,248,680,217,720,196.3C760,176,800,165,840,170.5C880,176,920,196,960,196.3C1000,196,1040,176,1080,170.5C1120,165,1160,176,1200,186C1240,196,1280,207,1320,196.3C1360,186,1400,155,1440,134.3C1480,114,1520,103,1560,124C1600,145,1640,196,1680,180.8C1720,165,1760,83,1800,56.8C1840,31,1880,62,1920,108.5C1960,155,2000,217,2040,206.7C2080,196,2120,114,2160,82.7C2200,52,2240,72,2280,67.2C2320,62,2360,31,2400,15.5C2440,0,2480,0,2520,10.3C2560,21,2600,41,2640,87.8C2680,134,2720,207,2760,217C2800,227,2840,176,2860,149.8L2880,124L2880,310L2860,310C2840,310,2800,310,2760,310C2720,310,2680,310,2640,310C2600,310,2560,310,2520,310C2480,310,2440,310,2400,310C2360,310,2320,310,2280,310C2240,310,2200,310,2160,310C2120,310,2080,310,2040,310C2000,310,1960,310,1920,310C1880,310,1840,310,1800,310C1760,310,1720,310,1680,310C1640,310,1600,310,1560,310C1520,310,1480,310,1440,310C1400,310,1360,310,1320,310C1280,310,1240,310,1200,310C1160,310,1120,310,1080,310C1040,310,1000,310,960,310C920,310,880,310,840,310C800,310,760,310,720,310C680,310,640,310,600,310C560,310,520,310,480,310C440,310,400,310,360,310C320,310,280,310,240,310C200,310,160,310,120,310C80,310,40,310,20,310L0,310Z"/></svg>